# xmcd
#
# Track frame offsets:
#	150
#	18119
#	36752
#	58140
#	81532
#	101059
#	122126
#	148296
#	165656
#
# Disc length: 2574 seconds
#
# Revision: 1
# Processed by: cddbd v1.5.2PL0 Copyright (c) Steve Scherf et al.
# Submitted via: audiograbber 1.83.01
#
DISCID=7d0a0c09
DTITLE=Rory Gallagher - Photo-Finish
DYEAR=1978
DGENRE=Rock
TTITLE0=Shin Kicker
TTITLE1=Brute Force And Ignorance
TTITLE2=Cruise On Out
TTITLE3=Cloak And Dagger
TTITLE4=Overnight Bag
TTITLE5=Shadow Play
TTITLE6=The Missippi Sheiks
TTITLE7=The Last Of The Independants
TTITLE8=Fuel To The Fire
EXTD=Copy from Vinyl to CD.
EXTT0=
EXTT1=
EXTT2=
EXTT3=
EXTT4=
EXTT5=
EXTT6=
EXTT7=
EXTT8=
PLAYORDER=
